<svg id="图层_1" data-name="图层 1" xmlns="http://www.w3.org/2000/svg" viewBox="0 0 40 40"><defs><style>.cls-1{fill:#ccc;}</style></defs><title>STONE-icon</title><path class="cls-1" d="M2.87,23c-1.42,3.49-1.67,6.78-.54,7.37.79.44,2.06-.54,3.24-2.31a9.73,9.73,0,0,0,3.24,5.11C7.09,33.82,6,34.9,6,36.08c0,2,3,3.58,6.78,3.58,3.39,0,6.19-1.28,6.73-3h.79c.54,1.72,3.34,3,6.73,3,3.78,0,6.78-1.57,6.78-3.58,0-1.18-1.13-2.26-2.85-2.9a9.73,9.73,0,0,0,3.24-5.11c1.18,1.77,2.41,2.75,3.24,2.31,1.18-.59.93-3.93-.54-7.37-1.13-2.7-2.65-4.71-3.83-5.16,0-.15,0-.34,0-.54a5.32,5.32,0,0,0-.79-2.8v-.2A2.92,2.92,0,0,0,32,13C31.69,5.93,27.18.33,19.86.33S8,5.93,7.73,13a2.92,2.92,0,0,0-.29,1.33v.2a5.32,5.32,0,0,0-.79,2.8v.54C5.57,18.31,4,20.27,2.87,23Z"/></svg>