<svg id="图层_1" data-name="图层 1" xmlns="http://www.w3.org/2000/svg" viewBox="0 0 40 40"><defs><style>.cls-1{fill:#ccc;}</style></defs><title>STONE-icon</title><path class="cls-1" d="M14.25,4C6.5,4,0,9.52,0,16c0,4,2.25,7.25,5.5,9.5h.25l-1.5,4.25L9.5,27h.25a9.81,9.81,0,0,0,4.5,1h1a12.55,12.55,0,0,1-.5-3c0-6,5.75-11,13-11h.5c-1-5.5-6.75-10-14-10Zm-5,9.75a1.93,1.93,0,0,1-2-1.75,2.15,2.15,0,0,1,2-2,2,2,0,0,1,2,2A1.78,1.78,0,0,1,9.25,13.77Zm10,0a1.93,1.93,0,0,1-2-1.75,2.15,2.15,0,0,1,2-2,2,2,0,0,1,2,2A1.78,1.78,0,0,1,19.25,13.77Z"/><path class="cls-1" d="M40,25.27c0-5.5-5.5-10-12-10-6.75,0-12,4.5-12,10s5.5,10,12,10a19.3,19.3,0,0,0,3.75-.5H32L36.25,37,35,33.27C38.25,31.27,40,28.52,40,25.27Zm-16.25-2a1.75,1.75,0,1,1,1.75-1.75A1.71,1.71,0,0,1,23.75,23.27Zm8.5,0A1.75,1.75,0,1,1,34,21.52,2.11,2.11,0,0,1,32.25,23.27Z"/></svg>