<svg id="图层_1" data-name="图层 1" xmlns="http://www.w3.org/2000/svg" viewBox="0 0 40 40"><defs><style>.cls-1{fill:#ccc;}</style></defs><title>STONE-icon</title><path class="cls-1" d="M29.62,19.74c-1.56-.3-.8-1.14-.8-1.14s1.52-2.52-.3-4.34c-2.26-2.27-7.75.29-7.75.29-2.1.65-1.54-.3-1.24-1.92,0-1.91-.65-5.13-6.24-3.23S2.91,18,2.91,18C-.42,22.48,0,25.93,0,25.93c.83,7.61,8.9,9.7,15.17,10.19,6.6.52,15.5-2.28,18.2-8S31.18,20,29.62,19.74ZM15.68,34c-6.55.31-11.85-3-11.85-7.37s5.3-7.91,11.85-8.21,11.86,2.41,11.86,6.78S22.23,33.68,15.68,34ZM14.37,21.29a6.2,6.2,0,0,0-5.83,7,3.42,3.42,0,0,0,1.77,3,7.63,7.63,0,0,0,9.83-1.77C22.14,26.84,21,20.52,14.37,21.29ZM12.71,30a1.8,1.8,0,0,1-2.22-1.6,2.36,2.36,0,0,1,2.11-2.23c1.41-.13,2.33.68,2.33,1.71A2.38,2.38,0,0,1,12.71,30Zm3.88-3.32a.76.76,0,0,1-1.15-.11,1,1,0,0,1,.28-1.26.8.8,0,0,1,1.22.11A1,1,0,0,1,16.59,26.65Zm16.24-9.6a1.07,1.07,0,0,0,1.06-.91.44.44,0,0,0,0-.12c.8-7.25-5.93-6-5.93-6a1.08,1.08,0,0,0,0,2.17C32.81,11.13,31.75,16,31.75,16A1.08,1.08,0,0,0,32.83,17.06ZM32,4.4a13.42,13.42,0,0,0-5.39.05c-.05,0-.1.05-.15.06a.07.07,0,0,0,0,0,1.58,1.58,0,0,0,.43,3.1,7.5,7.5,0,0,0,1.42-.34,8.27,8.27,0,0,1,7.79,3.86,7.06,7.06,0,0,1,.48,5.23,4.66,4.66,0,0,0-.31,1.52,1.44,1.44,0,0,0,1.56,1.42c.72,0,1.33-.1,1.51-1.33h0C41.93,9.41,36.21,5.37,32,4.4Z"/></svg>