<?xml version="1.0" encoding="utf-8"?><svg xmlns="http://www.w3.org/2000/svg" xmlns:xlink="http://www.w3.org/1999/xlink"><symbol id="QQ" viewBox="0 0 40 40" xmlns="http://www.w3.org/2000/svg"><defs></defs><title>STONE-icon</title><path class="acls-1" d="M2.87 23c-1.42 3.49-1.67 6.78-.54 7.37.79.44 2.06-.54 3.24-2.31a9.73 9.73 0 0 0 3.24 5.11C7.09 33.82 6 34.9 6 36.08c0 2 3 3.58 6.78 3.58 3.39 0 6.19-1.28 6.73-3h.79c.54 1.72 3.34 3 6.73 3 3.78 0 6.78-1.57 6.78-3.58 0-1.18-1.13-2.26-2.85-2.9a9.73 9.73 0 0 0 3.24-5.11c1.18 1.77 2.41 2.75 3.24 2.31 1.18-.59.93-3.93-.54-7.37-1.13-2.7-2.65-4.71-3.83-5.16v-.54a5.32 5.32 0 0 0-.79-2.8v-.2A2.92 2.92 0 0 0 32 13C31.69 5.93 27.18.33 19.86.33S8 5.93 7.73 13a2.92 2.92 0 0 0-.29 1.33v.2a5.32 5.32 0 0 0-.79 2.8v.54C5.57 18.31 4 20.27 2.87 23z"/></symbol><symbol id="wechat" viewBox="0 0 40 40" xmlns="http://www.w3.org/2000/svg"><defs></defs><title>STONE-icon</title><path class="bcls-1" d="M14.25 4C6.5 4 0 9.52 0 16c0 4 2.25 7.25 5.5 9.5h.25l-1.5 4.25L9.5 27h.25a9.81 9.81 0 0 0 4.5 1h1a12.55 12.55 0 0 1-.5-3c0-6 5.75-11 13-11h.5c-1-5.5-6.75-10-14-10zm-5 9.75a1.93 1.93 0 0 1-2-1.75 2.15 2.15 0 0 1 2-2 2 2 0 0 1 2 2 1.78 1.78 0 0 1-2 1.77zm10 0a1.93 1.93 0 0 1-2-1.75 2.15 2.15 0 0 1 2-2 2 2 0 0 1 2 2 1.78 1.78 0 0 1-2 1.77z"/><path class="bcls-1" d="M40 25.27c0-5.5-5.5-10-12-10-6.75 0-12 4.5-12 10s5.5 10 12 10a19.3 19.3 0 0 0 3.75-.5H32L36.25 37 35 33.27c3.25-2 5-4.75 5-8zm-16.25-2a1.75 1.75 0 1 1 1.75-1.75 1.71 1.71 0 0 1-1.75 1.75zm8.5 0A1.75 1.75 0 1 1 34 21.52a2.11 2.11 0 0 1-1.75 1.75z"/></symbol><symbol id="weibo" viewBox="0 0 40 40" xmlns="http://www.w3.org/2000/svg"><defs></defs><title>STONE-icon</title><path class="ccls-1" d="M29.62 19.74c-1.56-.3-.8-1.14-.8-1.14s1.52-2.52-.3-4.34c-2.26-2.27-7.75.29-7.75.29-2.1.65-1.54-.3-1.24-1.92 0-1.91-.65-5.13-6.24-3.23S2.91 18 2.91 18C-.42 22.48 0 25.93 0 25.93c.83 7.61 8.9 9.7 15.17 10.19 6.6.52 15.5-2.28 18.2-8s-2.19-8.12-3.75-8.38zM15.68 34c-6.55.31-11.85-3-11.85-7.37s5.3-7.91 11.85-8.21 11.86 2.41 11.86 6.78-5.31 8.48-11.86 8.8zm-1.31-12.71a6.2 6.2 0 0 0-5.83 7 3.42 3.42 0 0 0 1.77 3 7.63 7.63 0 0 0 9.83-1.77c2-2.68.86-9-5.77-8.23zM12.71 30a1.8 1.8 0 0 1-2.22-1.6 2.36 2.36 0 0 1 2.11-2.23c1.41-.13 2.33.68 2.33 1.71A2.38 2.38 0 0 1 12.71 30zm3.88-3.32a.76.76 0 0 1-1.15-.11 1 1 0 0 1 .28-1.26.8.8 0 0 1 1.22.11 1 1 0 0 1-.35 1.23zm16.24-9.6a1.07 1.07 0 0 0 1.06-.91.44.44 0 0 0 0-.12c.8-7.25-5.93-6-5.93-6a1.08 1.08 0 0 0 0 2.17c4.85-1.09 3.79 3.78 3.79 3.78a1.08 1.08 0 0 0 1.08 1.06zM32 4.4a13.42 13.42 0 0 0-5.39.05c-.05 0-.1.05-.15.06a1.58 1.58 0 0 0 .43 3.1 7.5 7.5 0 0 0 1.42-.34 8.27 8.27 0 0 1 7.79 3.86 7.06 7.06 0 0 1 .48 5.23 4.66 4.66 0 0 0-.31 1.52 1.44 1.44 0 0 0 1.56 1.42c.72 0 1.33-.1 1.51-1.33C41.93 9.41 36.21 5.37 32 4.4z"/></symbol></svg>